<svg id="Layer_1" data-name="Layer 1" xmlns="http://www.w3.org/2000/svg" viewBox="0 0 1983 1103"><defs><style>.cls-1{fill:#134989;}.cls-2{fill:#000102;}</style></defs><path class="cls-1" d="M640.41,636.38c-25.07,0-46-8.23-62.24-24.47-15.77-15.76-23.76-35.27-23.76-58V439.07h34.86V546.16c0,17.4,5,31.6,14.91,42.19,9.66,10.14,21.85,15.28,36.23,15.28,14.61,0,26.8-5.14,36.23-15.28,9.66-10.6,14.55-24.79,14.55-42.19V439.07h34.86V553.9c0,22.73-7.87,42.25-23.41,58C686.41,628.15,665.47,636.38,640.41,636.38Z"/><path class="cls-2" d="M725.55,439.57V553.9c0,22.59-7.82,42-23.26,57.66-16.14,16.14-37,24.32-61.88,24.32s-45.75-8.18-61.88-24.32c-15.68-15.66-23.62-35.06-23.62-57.66V439.57h33.86V546.16c0,17.53,5.06,31.84,15.05,42.54,9.76,10.24,22.07,15.43,36.59,15.43,14.75,0,27.07-5.2,36.61-15.45,9.73-10.69,14.67-25,14.67-42.52V439.57h33.86m1-1H690.69V546.16q0,26-14.41,41.85-14.07,15.12-35.87,15.12-21.45,0-35.87-15.12-14.76-15.82-14.77-41.85V438.57H553.91V553.9q0,34.47,23.91,58.37,24.6,24.62,62.59,24.61T703,612.27q23.55-23.91,23.55-58.37V438.57Z"/><path class="cls-1" d="M875.09,632.51V549.68c0-25.76-12.24-38.83-36.37-38.83-10.87,0-19.74,3.36-26.37,10-7.1,6.87-10.7,16.45-10.7,28.49v83.18H770.3V483.72h31.35v19h1.13l.14-.23c9.71-15,25.07-22.63,45.65-22.63,15.72,0,29.32,5.87,40.43,17.43,11.34,12,17.09,27.31,17.09,45.37v89.86Z"/><path class="cls-2" d="M848.57,480.35c15.58,0,29.06,5.82,40.06,17.27,11.25,11.95,17,27.1,17,45V632h-30V549.68c0-26.1-12.4-39.33-36.87-39.33-11,0-20,3.41-26.71,10.13-7.2,7-10.86,16.67-10.86,28.85V632H770.8V484.22h30.35v19h1.9l.29-.46c9.61-14.86,24.83-22.4,45.23-22.4m0-1q-31.3,0-46.07,22.86h-.35v-19H769.8V633h32.35V549.33q0-17.94,10.55-28.13,9.84-9.84,26-9.85,35.87,0,35.87,38.33V633h32V542.65q0-27.43-17.23-45.71-16.89-17.58-40.79-17.59Z"/><path class="cls-1" d="M1015.94,693.7c-24.62,0-45.77-9.62-62.87-28.58l26.59-16.36c11,10.42,22.47,15.7,34.17,15.7,11.55,0,21.13-3.36,28.46-10,8-7.1,12.13-17.16,12.13-29.91V616H1053l-.15.17c-11.79,13.42-26.81,20.22-44.62,20.22-17.13,0-31.44-6-42.54-17.77-11.81-12.28-17.8-28.72-17.8-48.89v-86h31.35v87.41c0,23.9,12,36,35.66,36,25.07,0,37.78-13.18,37.78-39.18V483.72h31V628.44c0,20.6-7.87,37.27-23.37,49.54C1047.08,688.41,1032.16,693.7,1015.94,693.7Z"/><path class="cls-2" d="M1083.16,484.22V628.44c0,20.44-7.8,37-23.18,49.15-13.12,10.36-27.94,15.61-44,15.61-24.28,0-45.17-9.41-62.1-28l25.75-15.84c11,10.33,22.51,15.57,34.24,15.57s21.37-3.4,28.79-10.1c8.16-7.2,12.3-17.39,12.3-30.29v-9.08h-2.16l-.3.34c-11.7,13.3-26.59,20-44.25,20-17,0-31.17-5.93-42.19-17.62-11.71-12.18-17.65-28.51-17.65-48.54v-85.5h30.35v86.91c0,24.23,12.17,36.51,36.16,36.51,25.4,0,38.28-13.35,38.28-39.68V484.22h30m1-1h-32V568q0,38.68-37.28,38.68-35.16,0-35.16-35.51V483.22H947.37v86.5q0,30.6,17.93,49.23,16.89,17.94,42.91,17.93,27.06,0,45-20.39h.71v8.08q0,19-12,29.54-10.9,9.84-28.13,9.85-17.58,0-34.11-15.83L952.3,665q26,29.19,63.64,29.19,24.61,0,44.66-15.82,23.55-18.64,23.56-49.94V483.22Z"/><path class="cls-1" d="M1177.83,636.23c-17.67-8.29-29.78-16-36-22.89C1134,604.8,1130,593.09,1130,578.51V513h-18.28V483.72H1130V443.87l31.35-8.52v48.37H1187V513h-25.67v59.57c0,14.43,4.58,24.4,13.61,29.62l16.8,9.6Z"/><path class="cls-2" d="M1160.86,436v48.21h25.67v28.24h-25.67v60.07c0,14.63,4.66,24.74,13.86,30.06l16.37,9.35-13.47,23.64c-17.38-8.18-29.29-15.78-35.42-22.58-7.76-8.44-11.69-20-11.69-34.49v-66h-18.28V484.22h18.28v-40l30.35-8.24m1-1.31-32.35,8.79v39.73h-18.28v30.24h18.28v65q0,22.15,12,35.17,9.48,10.55,36.57,23.2l14.41-25.31-17.23-9.85q-13.37-7.72-13.36-29.19V513.46h25.67V483.22h-25.67V434.7Z"/><path class="cls-1" d="M1217.57,632.51V483.72h31V632.51Zm15.67-162.45A16.12,16.12,0,0,1,1221,465a17.32,17.32,0,0,1,0-24.62,16.1,16.1,0,0,1,12.3-5.13,17.43,17.43,0,0,1,0,34.86Z"/><path class="cls-2" d="M1233.24,435.7a16.93,16.93,0,0,1,0,33.86,15.63,15.63,0,0,1-12-5,16.84,16.84,0,0,1,0-23.93,15.67,15.67,0,0,1,11.93-4.95m14.82,48.52V632h-30V484.22h30m-14.82-49.52a16.55,16.55,0,0,0-12.66,5.27,17.84,17.84,0,0,0,0,25.32,16.52,16.52,0,0,0,12.66,5.27,17.93,17.93,0,0,0,0-35.86Zm15.82,48.52h-32V633h32V483.22Z"/><path class="cls-1" d="M1361.93,636.38c-24.59,0-44.94-8.23-60.47-24.46-14.37-14.83-21.66-32.93-21.66-53.8s7.29-39,21.66-53.8c15.54-16.24,35.89-24.47,60.47-24.47,27.88,0,50.23,12,66.45,35.56l-27.25,16c-9.42-14.81-22.61-22.33-39.2-22.33-13.9,0-25.73,4.79-35.16,14.22-9.2,9.43-13.86,21.15-13.86,34.81s4.66,25.38,13.85,34.81c9.43,9.43,21.26,14.21,35.17,14.21,16.83,0,30-7.51,39.2-22.32l27.26,16C1413.33,624.42,1391,636.38,1361.93,636.38Z"/><path class="cls-2" d="M1361.93,480.35c14,0,26.59,3,37.59,8.94,10.72,5.78,20.19,14.52,28.14,26l-26.37,15.5c-9.5-14.7-22.73-22.16-39.36-22.16-14,0-26,4.83-35.53,14.37-9.28,9.53-14,21.36-14,35.16s4.71,25.63,14,35.17c9.53,9.52,21.48,14.35,35.52,14.35,16.86,0,30.1-7.45,39.37-22.14l26.39,15.5c-7.4,11.44-16.57,20.17-27.29,26-11,5.93-23.93,8.93-38.47,8.93-24.45,0-44.68-8.18-60.11-24.31-14.28-14.73-21.52-32.71-21.52-53.45s7.24-38.72,21.52-53.46c15.44-16.13,35.67-24.31,60.11-24.31m0-1q-37.28,0-60.83,24.62-21.81,22.5-21.8,54.15t21.8,54.15q23.57,24.62,60.83,24.61,44.31,0,67.16-36.22L1401,584.14q-13.71,22.5-39,22.5-20.75,0-34.81-14.06-13.71-14.05-13.71-34.46t13.71-34.46q14.07-14.06,34.81-14.07,25,0,39,22.51l28.13-16.53q-24.61-36.21-67.16-36.22Z"/></svg>